<svg width="94" height="90" viewBox="0 0 94 90" fill="none" xmlns="http://www.w3.org/2000/svg">
<path d="M38.0283 20.5977C39.5583 20.4512 40.9987 20.2559 42.3496 20.0117C42.5449 18.9049 42.9193 17.79 43.4727 16.667C44.0423 15.5277 44.7422 14.5023 45.5723 13.5908C46.4023 12.6631 47.3464 11.9144 48.4043 11.3447C49.4622 10.7588 50.5853 10.4658 51.7734 10.4658C52.6198 10.4658 53.3115 10.7507 53.8486 11.3203C54.402 11.8737 54.6787 12.5898 54.6787 13.4688C54.6787 14.2012 54.4508 14.9092 53.9951 15.5928C53.5394 16.2601 52.8802 16.8949 52.0176 17.4971C51.1712 18.083 50.1377 18.6364 48.917 19.1572C47.7126 19.6618 46.3535 20.1094 44.8398 20.5C44.9049 20.8906 45.0026 21.265 45.1328 21.623C45.263 21.9648 45.3851 22.2985 45.499 22.624C45.6292 22.9495 45.735 23.2751 45.8164 23.6006C45.9141 23.9098 45.9629 24.2435 45.9629 24.6016C45.9629 25.6107 45.7188 26.457 45.2305 27.1406C44.7422 27.8242 44.1318 28.4427 43.3994 28.9961C42.667 29.5332 41.8695 30.054 41.0068 30.5586C40.1605 31.0632 39.3711 31.6491 38.6387 32.3164C37.9062 32.9674 37.2959 33.7568 36.8076 34.6846C36.3193 35.596 36.0752 36.7354 36.0752 38.1025C36.0752 39.1768 36.2705 40.1126 36.6611 40.9102C37.068 41.7077 37.5889 42.375 38.2236 42.9121C38.8584 43.4492 39.5583 43.848 40.3232 44.1084C41.1045 44.3688 41.8613 44.499 42.5938 44.499C43.082 44.499 43.611 44.4746 44.1807 44.4258C44.7666 44.3607 45.4176 44.2061 46.1338 43.9619C46.8499 43.7015 47.6393 43.319 48.502 42.8145C49.3646 42.3099 50.3086 41.61 51.334 40.7148L51.9688 41.4961C50.862 42.4238 49.8366 43.1807 48.8926 43.7666C47.9486 44.3363 47.0452 44.7839 46.1826 45.1094C45.3363 45.4349 44.5062 45.6546 43.6924 45.7686C42.8949 45.8825 42.0811 45.9395 41.251 45.9395C40.0791 45.9395 38.9723 45.7848 37.9307 45.4756C36.9053 45.1663 36.0101 44.7106 35.2451 44.1084C34.4801 43.5062 33.8779 42.7575 33.4385 41.8623C32.9827 40.9671 32.7549 39.9336 32.7549 38.7617C32.7549 37.4271 33.0153 36.2715 33.5361 35.2949C34.0407 34.3184 34.6755 33.472 35.4404 32.7559C36.2054 32.0234 37.0273 31.3805 37.9062 30.8271C38.8014 30.2738 39.6315 29.7529 40.3965 29.2646C41.1615 28.7601 41.7962 28.2637 42.3008 27.7754C42.8216 27.2871 43.082 26.7337 43.082 26.1152C43.082 25.8874 43.0332 25.6432 42.9355 25.3828C42.8542 25.1061 42.7565 24.7887 42.6426 24.4307C42.5286 24.0726 42.4229 23.6657 42.3252 23.21C42.2438 22.7542 42.2031 22.2253 42.2031 21.623C42.2031 21.5417 42.2031 21.4603 42.2031 21.3789C42.2031 21.2812 42.2113 21.1836 42.2275 21.0859C41.6579 21.1999 41.0719 21.3057 40.4697 21.4033C39.8675 21.4847 39.2572 21.5661 38.6387 21.6475L38.0283 20.5977ZM44.7422 19.4746C47.151 18.8398 49.0146 18.0098 50.333 16.9844C51.6514 15.959 52.3105 14.7464 52.3105 13.3467C52.3105 12.7282 52.1641 12.2806 51.8711 12.0039C51.5781 11.7109 51.1631 11.5645 50.626 11.5645C50.1377 11.5645 49.5599 11.7516 48.8926 12.126C48.2253 12.484 47.5824 12.9967 46.9639 13.6641C46.3454 14.3314 45.8164 15.1452 45.377 16.1055C44.9538 17.0658 44.7422 18.14 44.7422 19.3281V19.4746Z" fill="black"/>
<path d="M6 82.66C5.64 82.66 5.24667 82.5733 4.82 82.4C4.40667 82.2133 4.01333 81.9 3.64 81.46C3.26667 81.02 2.96 80.4133 2.72 79.64C2.48 78.8667 2.36 77.8867 2.36 76.7C2.36 75.82 2.47333 74.9267 2.7 74.02C2.94 73.1 3.31333 72.2333 3.82 71.42C4.32667 70.6067 4.98 69.9 5.78 69.3C6.59333 68.7 7.56667 68.28 8.7 68.04C9.16667 67.9333 9.7 67.8333 10.3 67.74C10.9133 67.6333 11.5333 67.54 12.16 67.46C12.7867 67.3667 13.38 67.2933 13.94 67.24C14.5133 67.1867 14.9933 67.16 15.38 67.16C16.02 67.16 16.5 67.2467 16.82 67.42C17.14 67.5933 17.3533 67.7933 17.46 68.02C17.5667 68.2333 17.62 68.4267 17.62 68.6C17.62 68.8133 17.5533 69.0267 17.42 69.24C17.3 69.4533 16.9667 69.5933 16.42 69.66C16.3 69.6733 16.0467 69.7067 15.66 69.76C15.2733 69.8 14.8067 69.86 14.26 69.94C13.7267 70.02 13.16 70.1067 12.56 70.2C11.9733 70.28 11.4 70.3667 10.84 70.46C10.2933 70.54 9.82 70.6133 9.42 70.68C8.54 70.84 7.82667 71.1067 7.28 71.48C6.73333 71.84 6.30667 72.2667 6 72.76C5.70667 73.2533 5.49333 73.7733 5.36 74.32C5.89333 74.2 6.44667 74.08 7.02 73.96C7.59333 73.84 8.13333 73.7333 8.64 73.64C9.16 73.5467 9.60667 73.4733 9.98 73.42C10.3533 73.3667 10.6067 73.34 10.74 73.34C11.26 73.34 11.5733 73.4067 11.68 73.54C11.8 73.6733 11.86 73.88 11.86 74.16C11.86 74.4133 11.6333 74.7067 11.18 75.04C10.7267 75.36 10.0067 75.6867 9.02 76.02C8.03333 76.3533 6.74 76.6467 5.14 76.9C5.14 76.9133 5.14 76.92 5.14 76.92C5.11333 77.1867 5.09333 77.4933 5.08 77.84C5.06667 78.1733 5.06 78.5067 5.06 78.84C5.06 79.1733 5.08 79.4467 5.12 79.66C5.16 79.8733 5.23333 79.98 5.34 79.98C5.63333 79.98 6.04 79.92 6.56 79.8C7.08 79.68 7.62667 79.5333 8.2 79.36C8.77333 79.1867 9.30667 79.02 9.8 78.86C10.2933 78.6867 10.6533 78.5533 10.88 78.46C11.2133 78.3267 11.5467 78.1933 11.88 78.06C12.2267 77.9267 12.5 77.86 12.7 77.86C12.9 77.86 13.0733 77.94 13.22 78.1C13.3667 78.2467 13.4133 78.4733 13.36 78.78C13.3467 78.9133 13.2067 79.1333 12.94 79.44C12.6867 79.7333 12.3333 80.0667 11.88 80.44C11.44 80.8 10.9133 81.1533 10.3 81.5C9.7 81.8333 9.03333 82.1133 8.3 82.34C7.58 82.5533 6.81333 82.66 6 82.66ZM22.0714 83.5C20.8714 83.5 19.9247 83.1333 19.2314 82.4C18.5514 81.6533 18.2114 80.5933 18.2114 79.22C18.2114 78.4733 18.3114 77.6 18.5114 76.6C18.7114 75.5867 18.9714 74.52 19.2914 73.4C19.6247 72.2667 19.9781 71.1467 20.3514 70.04C20.7381 68.9333 21.1181 67.9067 21.4914 66.96C21.8647 66.0133 22.1914 65.22 22.4714 64.58C22.7114 64.0867 23.0514 63.84 23.4914 63.84C23.7714 63.84 23.9981 63.9267 24.1714 64.1C24.3581 64.2733 24.4514 64.5533 24.4514 64.94C24.4514 65.1267 24.3581 65.5333 24.1714 66.16C23.9847 66.7867 23.7381 67.56 23.4314 68.48C23.1381 69.3867 22.8181 70.3667 22.4714 71.42C22.1381 72.4733 21.8181 73.5333 21.5114 74.6C21.2181 75.6667 20.9781 76.6733 20.7914 77.62C20.6047 78.5533 20.5114 79.3467 20.5114 80C20.5114 80.2667 20.5847 80.48 20.7314 80.64C20.8914 80.8 21.0981 80.88 21.3514 80.88C21.8981 80.88 22.4581 80.78 23.0314 80.58C23.6181 80.38 24.1914 80.1267 24.7514 79.82C25.3247 79.5133 25.8647 79.1867 26.3714 78.84C26.8781 78.4933 27.3314 78.1667 27.7314 77.86C28.1447 77.54 28.4781 77.2867 28.7314 77.1C29.0647 76.8467 29.2914 76.72 29.4114 76.72C29.8647 76.72 30.0914 76.94 30.0914 77.38C30.0914 77.4867 29.9581 77.7067 29.6914 78.04C29.4647 78.3333 29.1447 78.7067 28.7314 79.16C28.3181 79.6133 27.8381 80.0933 27.2914 80.6C26.7581 81.0933 26.1847 81.56 25.5714 82C24.9714 82.44 24.3714 82.8 23.7714 83.08C23.1714 83.36 22.6047 83.5 22.0714 83.5ZM31.5559 83.18C30.7293 83.18 30.0626 82.8933 29.5559 82.32C29.0493 81.7333 28.7959 80.7933 28.7959 79.5C28.7959 78.6733 28.8893 77.8467 29.0759 77.02C29.2759 76.18 29.5493 75.3867 29.8959 74.64C30.2559 73.88 30.6693 73.2067 31.1359 72.62C31.6159 72.0333 32.1426 71.5733 32.7159 71.24C33.2893 70.8933 33.8826 70.72 34.4959 70.72C35.5359 70.72 36.3493 71 36.9359 71.56C37.5226 72.12 37.8159 72.8333 37.8159 73.7C37.8159 74.3667 37.6293 74.9733 37.2559 75.52C36.8959 76.0533 36.4026 76.5333 35.7759 76.96C35.1493 77.3867 34.4493 77.7733 33.6759 78.12C32.9026 78.4667 32.1093 78.78 31.2959 79.06C31.2293 79.54 31.1959 79.9667 31.1959 80.34C31.1959 80.5667 31.3226 80.68 31.5759 80.68C32.1759 80.68 32.8159 80.5867 33.4959 80.4C34.1893 80.2 34.8893 79.9467 35.5959 79.64C36.3026 79.32 36.9826 78.9933 37.6359 78.66C38.2893 78.3133 38.8826 77.9867 39.4159 77.68C39.9626 77.36 40.4093 77.1067 40.7559 76.92C41.1159 76.72 41.3493 76.62 41.4559 76.62C41.7493 76.62 41.9626 76.7067 42.0959 76.88C42.2293 77.0533 42.2959 77.24 42.2959 77.44C42.2959 77.5333 42.1159 77.74 41.7559 78.06C41.4093 78.38 40.9293 78.76 40.3159 79.2C39.7159 79.6267 39.0359 80.0733 38.2759 80.54C37.5293 80.9933 36.7493 81.4267 35.9359 81.84C35.1359 82.24 34.3559 82.56 33.5959 82.8C32.8493 83.0533 32.1693 83.18 31.5559 83.18ZM31.6359 77.28C32.1826 76.96 32.7226 76.6267 33.2559 76.28C33.8026 75.92 34.2559 75.52 34.6159 75.08C34.9759 74.6267 35.1559 74.1 35.1559 73.5C35.1559 73.3267 35.1093 73.2133 35.0159 73.16C34.9226 73.0933 34.7893 73.06 34.6159 73.06C34.1493 73.06 33.7226 73.2667 33.3359 73.68C32.9626 74.0933 32.6293 74.6267 32.3359 75.28C32.0559 75.92 31.8226 76.5867 31.6359 77.28ZM43.6406 82.48C43.294 82.48 42.9873 82.3133 42.7206 81.98C42.4673 81.6467 42.274 81.1333 42.1406 80.44C42.034 79.8533 41.9406 79.1867 41.8606 78.44C41.7806 77.6933 41.7073 76.96 41.6406 76.24C41.5873 75.5067 41.5473 74.8667 41.5206 74.32C41.494 73.7733 41.4806 73.4 41.4806 73.2C41.4806 72.48 41.6073 71.8867 41.8606 71.42C42.114 70.94 42.6006 70.7 43.3206 70.7C43.6273 70.7 43.8606 70.8333 44.0206 71.1C44.1806 71.3533 44.2606 71.7067 44.2606 72.16C44.2606 72.44 44.2606 72.7933 44.2606 73.22C44.274 73.6333 44.2873 74.1 44.3006 74.62C44.314 75.1933 44.3273 75.8133 44.3406 76.48C44.3673 77.1333 44.3806 77.7867 44.3806 78.44C44.8473 77.7067 45.3473 76.9267 45.8806 76.1C46.414 75.26 46.934 74.4467 47.4406 73.66C47.9606 72.8733 48.4273 72.18 48.8406 71.58C49.254 70.9667 49.5673 70.5333 49.7806 70.28C49.9673 70.0533 50.194 69.86 50.4606 69.7C50.7273 69.5267 51.0073 69.44 51.3006 69.44C51.6206 69.44 51.8873 69.5667 52.1006 69.82C52.314 70.0733 52.4206 70.3667 52.4206 70.7C52.4206 70.9533 52.3673 71.1933 52.2606 71.42C52.1673 71.6467 52.0473 71.86 51.9006 72.06C51.5006 72.62 51.0273 73.2733 50.4806 74.02C49.9473 74.7667 49.3873 75.5533 48.8006 76.38C48.214 77.1933 47.6406 77.98 47.0806 78.74C46.534 79.5 46.0473 80.1733 45.6206 80.76C45.274 81.2533 44.994 81.6267 44.7806 81.88C44.5673 82.12 44.374 82.28 44.2006 82.36C44.0406 82.44 43.854 82.48 43.6406 82.48ZM53.6106 83.26C53.184 83.26 52.7973 83.14 52.4506 82.9C52.104 82.6733 51.8306 82.3733 51.6306 82C51.4306 81.6133 51.3306 81.2 51.3306 80.76C51.3306 79.9333 51.5106 79.1267 51.8706 78.34C52.244 77.5533 52.7306 76.8067 53.3306 76.1C53.9306 75.3933 54.584 74.7467 55.2906 74.16C56.0106 73.56 56.724 73.0467 57.4306 72.62C58.1506 72.1933 58.804 71.86 59.3906 71.62C59.9906 71.38 60.4573 71.26 60.7906 71.26C61.1773 71.26 61.4906 71.3467 61.7306 71.52C61.984 71.68 62.1106 71.9333 62.1106 72.28C62.1106 72.3867 62.084 72.4733 62.0306 72.54C62.204 72.58 62.344 72.68 62.4506 72.84C62.5573 73 62.6106 73.24 62.6106 73.56C62.6106 73.6933 62.5773 74.04 62.5106 74.6C62.444 75.16 62.3706 75.84 62.2906 76.64C62.224 77.44 62.1906 78.2733 62.1906 79.14C62.1906 79.2733 62.2106 79.3933 62.2506 79.5C62.2906 79.5933 62.3773 79.64 62.5106 79.64C63.044 79.64 63.584 79.5333 64.1306 79.32C64.6906 79.0933 65.2306 78.82 65.7506 78.5C66.284 78.1667 66.764 77.84 67.1906 77.52C67.6306 77.1867 67.9973 76.9133 68.2906 76.7C68.5973 76.4733 68.7973 76.36 68.8906 76.36C69.344 76.36 69.5706 76.5867 69.5706 77.04C69.5706 77.16 69.424 77.4133 69.1306 77.8C68.8506 78.1733 68.464 78.6067 67.9706 79.1C67.4773 79.58 66.924 80.06 66.3106 80.54C65.7106 81.0067 65.084 81.3933 64.4306 81.7C63.7906 82.0067 63.1706 82.16 62.5706 82.16C61.8373 82.16 61.2773 81.9867 60.8906 81.64C60.5173 81.2933 60.2506 80.8267 60.0906 80.24C59.944 79.64 59.864 78.9667 59.8506 78.22C59.1706 79.1933 58.464 80.06 57.7306 80.82C57.0106 81.5667 56.2973 82.16 55.5906 82.6C54.884 83.04 54.224 83.26 53.6106 83.26ZM60.6906 73.24C59.384 73.8667 58.2106 74.5867 57.1706 75.4C56.1306 76.2 55.304 77.04 54.6906 77.92C54.0906 78.8 53.7906 79.6467 53.7906 80.46C53.7906 80.6867 53.8973 80.8 54.1106 80.8C54.364 80.8 54.6973 80.6533 55.1106 80.36C55.5373 80.0667 55.9973 79.68 56.4906 79.2C56.984 78.7067 57.4773 78.16 57.9706 77.56C58.464 76.9467 58.924 76.32 59.3506 75.68C59.7773 75.04 60.1173 74.4267 60.3706 73.84C60.464 73.6267 60.5706 73.4267 60.6906 73.24ZM82.2894 72.42C82.2894 72.58 82.236 72.72 82.1294 72.84C82.0227 72.96 81.8894 73.0533 81.7294 73.12C81.5027 73.2133 81.1094 73.3333 80.5494 73.48C79.9894 73.6267 79.3094 73.7933 78.5094 73.98C77.7227 74.1667 76.876 74.36 75.9694 74.56C75.0627 74.7467 74.156 74.9267 73.2494 75.1C72.9027 76.38 72.5494 77.7 72.1894 79.06C71.8294 80.4067 71.4694 81.7333 71.1094 83.04C70.976 83.5067 70.816 83.86 70.6294 84.1C70.4427 84.3533 70.1227 84.48 69.6694 84.48C69.176 84.48 68.8427 84.32 68.6694 84C68.5094 83.6933 68.4894 83.2733 68.6094 82.74C68.956 81.2867 69.276 79.9333 69.5694 78.68C69.876 77.4267 70.1227 76.4133 70.3094 75.64C69.5094 75.7733 68.8094 75.88 68.2094 75.96C67.6094 76.0267 67.1827 76.0533 66.9294 76.04C66.6494 76.0133 66.416 75.9 66.2294 75.7C66.0427 75.5 65.956 75.2533 65.9694 74.96C65.996 74.6933 66.116 74.4667 66.3294 74.28C66.5427 74.08 66.796 73.96 67.0894 73.92C67.5027 73.88 68.036 73.82 68.6894 73.74C69.3427 73.66 70.0627 73.5667 70.8494 73.46C71.0227 72.78 71.2227 72.08 71.4494 71.36C71.676 70.6267 71.9094 69.9267 72.1494 69.26C72.4027 68.58 72.6427 67.9867 72.8694 67.48C73.096 66.9733 73.3027 66.6067 73.4894 66.38C73.636 66.2067 73.816 66.0733 74.0294 65.98C74.256 65.8867 74.476 65.84 74.6894 65.84C74.9694 65.84 75.196 65.94 75.3694 66.14C75.5427 66.34 75.6294 66.5733 75.6294 66.84C75.6294 66.9467 75.6227 67.06 75.6094 67.18C75.596 67.2867 75.5694 67.3933 75.5294 67.5C75.276 68.1667 75.0027 68.9733 74.7094 69.92C74.4294 70.8667 74.136 71.9067 73.8294 73.04C74.8294 72.8933 75.8094 72.7467 76.7694 72.6C77.7427 72.44 78.6227 72.2933 79.4094 72.16C80.2094 72.0133 80.8494 71.8867 81.3294 71.78C81.596 71.6867 81.8227 71.7067 82.0094 71.84C82.196 71.96 82.2894 72.1533 82.2894 72.42ZM82.7278 83.18C81.9011 83.18 81.2345 82.8933 80.7278 82.32C80.2211 81.7333 79.9678 80.7933 79.9678 79.5C79.9678 78.6733 80.0611 77.8467 80.2478 77.02C80.4478 76.18 80.7211 75.3867 81.0678 74.64C81.4278 73.88 81.8411 73.2067 82.3078 72.62C82.7878 72.0333 83.3145 71.5733 83.8878 71.24C84.4611 70.8933 85.0545 70.72 85.6678 70.72C86.7078 70.72 87.5211 71 88.1078 71.56C88.6945 72.12 88.9878 72.8333 88.9878 73.7C88.9878 74.3667 88.8011 74.9733 88.4278 75.52C88.0678 76.0533 87.5745 76.5333 86.9478 76.96C86.3211 77.3867 85.6211 77.7733 84.8478 78.12C84.0745 78.4667 83.2811 78.78 82.4678 79.06C82.4011 79.54 82.3678 79.9667 82.3678 80.34C82.3678 80.5667 82.4945 80.68 82.7478 80.68C83.3478 80.68 83.9878 80.5867 84.6678 80.4C85.3611 80.2 86.0611 79.9467 86.7678 79.64C87.4745 79.32 88.1545 78.9933 88.8078 78.66C89.4611 78.3133 90.0545 77.9867 90.5878 77.68C91.1345 77.36 91.5811 77.1067 91.9278 76.92C92.2878 76.72 92.5211 76.62 92.6278 76.62C92.9211 76.62 93.1345 76.7067 93.2678 76.88C93.4011 77.0533 93.4678 77.24 93.4678 77.44C93.4678 77.5333 93.2878 77.74 92.9278 78.06C92.5811 78.38 92.1011 78.76 91.4878 79.2C90.8878 79.6267 90.2078 80.0733 89.4478 80.54C88.7011 80.9933 87.9211 81.4267 87.1078 81.84C86.3078 82.24 85.5278 82.56 84.7678 82.8C84.0211 83.0533 83.3411 83.18 82.7278 83.18ZM82.8078 77.28C83.3545 76.96 83.8945 76.6267 84.4278 76.28C84.9745 75.92 85.4278 75.52 85.7878 75.08C86.1478 74.6267 86.3278 74.1 86.3278 73.5C86.3278 73.3267 86.2811 73.2133 86.1878 73.16C86.0945 73.0933 85.9611 73.06 85.7878 73.06C85.3211 73.06 84.8945 73.2667 84.5078 73.68C84.1345 74.0933 83.8011 74.6267 83.5078 75.28C83.2278 75.92 82.9945 76.5867 82.8078 77.28Z" fill="black"/>
</svg>
