<svg width="180" height="36" viewBox="0 0 180 36" fill="none" xmlns="http://www.w3.org/2000/svg">
<path d="M16.5105 31.5H14.4075C9.03 31.5 6.342 31.5 4.671 29.7975C3 28.095 3 25.3545 3 19.875C3 14.3955 3 11.655 4.671 9.9525C6.342 8.25 9.03 8.25 14.4075 8.25H20.112C25.4895 8.25 28.179 8.25 29.85 9.9525C31.1355 11.262 31.431 13.1865 31.5 16.5" stroke="#343C6A" stroke-width="3" stroke-linecap="round" stroke-linejoin="round"/>
<path d="M30.0255 30.0345L33 33M24 6.75L23.85 6.285C23.1075 3.975 22.737 2.82 21.8535 2.16C20.9685 1.5 19.7955 1.5 17.445 1.5H17.0505C14.703 1.5 13.5285 1.5 12.645 2.16C11.76 2.82 11.3895 3.975 10.647 6.285L10.5 6.75M31.5795 26.289C31.5913 25.5868 31.4633 24.8894 31.2027 24.2372C30.9422 23.5851 30.5545 22.9913 30.0621 22.4906C29.5697 21.9899 28.9826 21.5922 28.3349 21.3207C27.6873 21.0492 26.992 20.9094 26.2898 20.9094C25.5875 20.9094 24.8923 21.0492 24.2446 21.3207C23.597 21.5922 23.0098 21.9899 22.5175 22.4906C22.0251 22.9913 21.6373 23.5851 21.3768 24.2372C21.1163 24.8894 20.9882 25.5868 21 26.289C21.0234 27.6765 21.591 28.9993 22.5805 29.9722C23.5699 30.9452 24.9021 31.4904 26.2898 31.4904C27.6775 31.4904 29.0096 30.9452 29.9991 29.9722C30.9886 28.9993 31.5562 27.6765 31.5795 26.289Z" stroke="#343C6A" stroke-width="3" stroke-linecap="round" stroke-linejoin="round"/>
<path d="M52.225 27.45C48.2 27.45 45.375 24.825 45.375 21V20.325H50.225V20.775C50.225 22.1 51.025 22.975 52.225 22.975C53.35 22.975 54.15 22.125 54.15 20.775V9.5H59V21C59 24.8 56.275 27.45 52.225 27.45ZM68.6059 27.45C64.2059 27.45 61.0559 24.425 61.0559 20.25C61.0559 16.075 64.2059 13.075 68.6059 13.075C73.0059 13.075 76.1809 16.075 76.1809 20.25C76.1809 24.425 73.0059 27.45 68.6059 27.45ZM68.6059 23.275C70.3059 23.275 71.5309 22.05 71.5309 20.275C71.5309 18.5 70.3059 17.25 68.6059 17.25C66.9309 17.25 65.7059 18.475 65.7059 20.275C65.7059 22.05 66.9309 23.275 68.6059 23.275ZM86.2848 13.1C90.4348 13.1 93.3848 16.075 93.3848 20.275C93.3848 24.475 90.4348 27.45 86.2848 27.45C84.7098 27.45 83.3098 26.925 82.2098 26L81.7848 27H78.3348V8.625H82.9348V14.025C83.9098 13.425 85.0348 13.1 86.2848 13.1ZM85.6598 23.325C87.3848 23.325 88.6848 22.025 88.6848 20.275C88.6848 18.5 87.4098 17.2 85.6598 17.2C83.9348 17.2 82.6348 18.5 82.6348 20.275C82.6348 22.025 83.9348 23.325 85.6598 23.325ZM117.727 27H112.852L111.502 16.925L106.852 27.05H105.427L100.802 16.95L99.452 27H94.552L97.202 9.5H102.027L106.152 19.025L110.302 9.5H115.102L117.727 27ZM130.617 13.5H134.092V27H130.492L130.092 26.05C128.992 26.95 127.592 27.45 126.017 27.45C121.892 27.45 118.942 24.45 118.942 20.25C118.942 16.075 121.892 13.1 126.017 13.1C127.617 13.1 129.042 13.625 130.142 14.55L130.617 13.5ZM126.642 23.35C128.392 23.35 129.667 22.025 129.667 20.25C129.667 18.5 128.392 17.2 126.642 17.2C124.892 17.2 123.617 18.5 123.617 20.25C123.617 22.025 124.892 23.35 126.642 23.35ZM144.351 22.95H146.126V27H142.926C139.951 27 138.126 25.175 138.126 22.175V17.1H135.651V16L141.701 9.575H142.676V13.5H146.051V17.1H142.776V21.4C142.776 22.35 143.376 22.95 144.351 22.95ZM155.855 13.45H157.105V17.7H155.28C153.655 17.7 152.955 18.425 152.955 20.15V27H148.305V13.5H151.43L152.155 15C153.105 13.9 154.255 13.45 155.855 13.45ZM158.877 11.825V7.875H163.477V11.825H158.877ZM158.852 27V13.5H163.502V27H158.852ZM179.621 27H174.421L172.196 23.025L169.946 27H164.796L169.271 20L165.121 13.5H170.271L172.221 16.9L174.246 13.5H179.321L175.121 19.875L179.621 27Z" fill="#343C6A"/>
</svg>
